<?xml version="1.0" encoding="UTF-8"?>
<!DOCTYPE svg PUBLIC "-//W3C//DTD SVG 1.1//EN" "http://www.w3.org/Graphics/SVG/1.1/DTD/svg11.dtd">
<svg xmlns="http://www.w3.org/2000/svg" version="1.1" width="384px" height="384px" style="shape-rendering:geometricPrecision; text-rendering:geometricPrecision; image-rendering:optimizeQuality; fill-rule:evenodd; clip-rule:evenodd" xmlns:xlink="http://www.w3.org/1999/xlink">
<g><path style="opacity:1" fill="#010000" d="M 317.5,267.5 C 317.782,268.778 318.449,269.778 319.5,270.5C 317.529,279.105 316.862,288.105 317.5,297.5C 317.5,299.167 317.5,300.833 317.5,302.5C 317.5,306.167 317.5,309.833 317.5,313.5C 312.833,313.5 308.167,313.5 303.5,313.5C 302.488,318.858 302.488,324.191 303.5,329.5C 300.615,329.194 297.948,329.527 295.5,330.5C 293.149,332.841 292.149,335.841 292.5,339.5C 288.167,339.5 283.833,339.5 279.5,339.5C 279.5,343.5 279.5,347.5 279.5,351.5C 267.5,351.5 255.5,351.5 243.5,351.5C 243.5,355.5 243.5,359.5 243.5,363.5C 208.833,363.5 174.167,363.5 139.5,363.5C 139.5,359.5 139.5,355.5 139.5,351.5C 127.5,351.5 115.5,351.5 103.5,351.5C 103.5,347.5 103.5,343.5 103.5,339.5C 99.1667,339.5 94.8333,339.5 90.5,339.5C 90.5797,336.219 89.913,333.219 88.5,330.5C 85.9455,329.612 83.2788,329.279 80.5,329.5C 80.5,327.833 80.5,326.167 80.5,324.5C 79.7564,320.881 79.423,317.215 79.5,313.5C 74.8333,313.5 70.1667,313.5 65.5,313.5C 65.5,309.833 65.5,306.167 65.5,302.5C 65.5,300.833 65.5,299.167 65.5,297.5C 65.5,288.5 65.5,279.5 65.5,270.5C 65.5,269.5 65.5,268.5 65.5,267.5C 65.5,242.167 65.5,216.833 65.5,191.5C 61.5,191.5 57.5,191.5 53.5,191.5C 53.5,149.5 53.5,107.5 53.5,65.5C 57.5,65.5 61.5,65.5 65.5,65.5C 65.5,61.5 65.5,57.5 65.5,53.5C 78.8333,53.5 92.1667,53.5 105.5,53.5C 105.5,57.5 105.5,61.5 105.5,65.5C 109.5,65.5 113.5,65.5 117.5,65.5C 115.896,62.0568 114.062,58.7234 112,55.5C 111.505,53.5273 111.338,51.5273 111.5,49.5C 113.288,49.2148 114.955,49.5481 116.5,50.5C 120.667,58.1667 124.833,65.8333 129,73.5C 132.469,76.9847 136.636,78.9847 141.5,79.5C 141.5,83.5 141.5,87.5 141.5,91.5C 145.5,91.5 149.5,91.5 153.5,91.5C 153.5,95.5 153.5,99.5 153.5,103.5C 158.167,103.5 162.833,103.5 167.5,103.5C 167.5,107.5 167.5,111.5 167.5,115.5C 183.5,115.5 199.5,115.5 215.5,115.5C 215.5,111.5 215.5,107.5 215.5,103.5C 220.167,103.5 224.833,103.5 229.5,103.5C 229.5,99.5 229.5,95.5 229.5,91.5C 233.5,91.5 237.5,91.5 241.5,91.5C 241.5,87.5 241.5,83.5 241.5,79.5C 247.85,78.91 252.683,75.91 256,70.5C 259.245,63.6755 262.745,57.0089 266.5,50.5C 268.045,49.5481 269.712,49.2148 271.5,49.5C 270.584,55.0799 268.584,60.2466 265.5,65C 269.486,65.4988 273.486,65.6655 277.5,65.5C 277.5,61.5 277.5,57.5 277.5,53.5C 290.833,53.5 304.167,53.5 317.5,53.5C 317.5,57.5 317.5,61.5 317.5,65.5C 321.5,65.5 325.5,65.5 329.5,65.5C 329.5,107.5 329.5,149.5 329.5,191.5C 325.5,191.5 321.5,191.5 317.5,191.5C 317.5,216.833 317.5,242.167 317.5,267.5 Z M 117.5,65.5 C 120.184,69.0195 122.518,72.8529 124.5,77C 122.26,77.977 119.927,78.477 117.5,78.5C 117.5,74.1667 117.5,69.8333 117.5,65.5 Z M 264.5,66.5 C 265.483,70.2984 265.817,74.2984 265.5,78.5C 263.073,78.477 260.74,77.977 258.5,77C 260.903,73.6894 262.903,70.1894 264.5,66.5 Z"/></g>
<g><path style="opacity:1" fill="#f9aea1" d="M 129.5,103.5 C 127.638,110.692 123.304,115.692 116.5,118.5C 115.504,118.414 114.671,118.748 114,119.5C 113.128,117.387 111.628,116.054 109.5,115.5C 108.833,115.833 108.167,116.167 107.5,116.5C 110.463,120.253 109.796,121.92 105.5,121.5C 105.5,122.833 105.5,124.167 105.5,125.5C 91.8695,125.555 79.2029,122.222 67.5,115.5C 67.5,103.5 67.5,91.5 67.5,79.5C 71.5,79.5 75.5,79.5 79.5,79.5C 79.5,75.5 79.5,71.5 79.5,67.5C 83.5,67.5 87.5,67.5 91.5,67.5C 91.5,71.5 91.5,75.5 91.5,79.5C 96.1667,79.5 100.833,79.5 105.5,79.5C 105.5,83.5 105.5,87.5 105.5,91.5C 113.5,91.5 121.5,91.5 129.5,91.5C 129.5,95.5 129.5,99.5 129.5,103.5 Z"/></g>
<g><path style="opacity:1" fill="#f9aea1" d="M 315.5,115.5 C 306.014,120.106 296.014,123.106 285.5,124.5C 281.688,124.238 278.021,123.405 274.5,122C 273.773,120.601 273.273,119.101 273,117.5C 271.556,119.155 269.722,119.822 267.5,119.5C 260.394,116.389 255.728,111.056 253.5,103.5C 253.5,99.5 253.5,95.5 253.5,91.5C 261.5,91.5 269.5,91.5 277.5,91.5C 277.5,87.5 277.5,83.5 277.5,79.5C 282.167,79.5 286.833,79.5 291.5,79.5C 291.5,75.5 291.5,71.5 291.5,67.5C 295.5,67.5 299.5,67.5 303.5,67.5C 303.5,71.5 303.5,75.5 303.5,79.5C 307.5,79.5 311.5,79.5 315.5,79.5C 315.5,91.5 315.5,103.5 315.5,115.5 Z"/></g>
<g><path style="opacity:1" fill="#ce6a64" d="M 129.5,103.5 C 133.5,103.5 137.5,103.5 141.5,103.5C 141.5,108.167 141.5,112.833 141.5,117.5C 137.5,117.5 133.5,117.5 129.5,117.5C 129.5,121.5 129.5,125.5 129.5,129.5C 121.5,129.5 113.5,129.5 105.5,129.5C 106.089,133.971 105.423,137.971 103.5,141.5C 103.5,136.833 103.5,132.167 103.5,127.5C 107.514,127.666 111.514,127.499 115.5,127C 114.74,125.559 114.074,124.059 113.5,122.5C 114.524,121.148 115.524,119.815 116.5,118.5C 123.304,115.692 127.638,110.692 129.5,103.5 Z"/></g>
<g><path style="opacity:1" fill="#ce6a64" d="M 253.5,103.5 C 255.728,111.056 260.394,116.389 267.5,119.5C 268.871,121.459 269.871,123.625 270.5,126C 273.478,126.696 276.478,127.196 279.5,127.5C 279.5,132.167 279.5,136.833 279.5,141.5C 277.577,137.971 276.911,133.971 277.5,129.5C 269.5,129.5 261.5,129.5 253.5,129.5C 253.5,125.5 253.5,121.5 253.5,117.5C 249.5,117.5 245.5,117.5 241.5,117.5C 241.5,112.833 241.5,108.167 241.5,103.5C 245.5,103.5 249.5,103.5 253.5,103.5 Z"/></g>
<g><path style="opacity:1" fill="#e0766a" d="M 67.5,115.5 C 79.2029,122.222 91.8695,125.555 105.5,125.5C 105.5,124.167 105.5,122.833 105.5,121.5C 109.796,121.92 110.463,120.253 107.5,116.5C 108.167,116.167 108.833,115.833 109.5,115.5C 111.628,116.054 113.128,117.387 114,119.5C 114.671,118.748 115.504,118.414 116.5,118.5C 115.524,119.815 114.524,121.148 113.5,122.5C 114.074,124.059 114.74,125.559 115.5,127C 111.514,127.499 107.514,127.666 103.5,127.5C 103.5,132.167 103.5,136.833 103.5,141.5C 99.5,141.5 95.5,141.5 91.5,141.5C 91.5,149.5 91.5,157.5 91.5,165.5C 87.5,165.5 83.5,165.5 79.5,165.5C 79.5,170.167 79.5,174.833 79.5,179.5C 75.5,179.5 71.5,179.5 67.5,179.5C 67.5,158.167 67.5,136.833 67.5,115.5 Z"/></g>
<g><path style="opacity:1" fill="#e1766a" d="M 315.5,115.5 C 315.5,136.833 315.5,158.167 315.5,179.5C 311.5,179.5 307.5,179.5 303.5,179.5C 303.5,174.833 303.5,170.167 303.5,165.5C 299.5,165.5 295.5,165.5 291.5,165.5C 291.5,157.5 291.5,149.5 291.5,141.5C 287.5,141.5 283.5,141.5 279.5,141.5C 279.5,136.833 279.5,132.167 279.5,127.5C 276.478,127.196 273.478,126.696 270.5,126C 269.871,123.625 268.871,121.459 267.5,119.5C 269.722,119.822 271.556,119.155 273,117.5C 273.273,119.101 273.773,120.601 274.5,122C 278.021,123.405 281.688,124.238 285.5,124.5C 296.014,123.106 306.014,120.106 315.5,115.5 Z"/></g>
<g><path style="opacity:1" fill="#f9aea1" d="M 303.5,271.5 C 302.127,271.343 300.793,271.51 299.5,272C 290.629,277.268 281.629,282.268 272.5,287C 265.515,288.248 258.515,289.415 251.5,290.5C 254.971,292.087 258.637,293.254 262.5,294C 255.967,300.437 248.301,305.104 239.5,308C 224.414,314.117 208.748,317.617 192.5,318.5C 169.902,316.684 148.569,310.518 128.5,300C 125.833,298 123.167,296 120.5,294C 124.363,293.254 128.029,292.087 131.5,290.5C 124.095,289.772 116.762,288.605 109.5,287C 99.9172,281.042 89.9172,275.875 79.5,271.5C 79.5,248.167 79.5,224.833 79.5,201.5C 83.5,201.5 87.5,201.5 91.5,201.5C 91.5,193.5 91.5,185.5 91.5,177.5C 95.5,177.5 99.5,177.5 103.5,177.5C 103.5,169.5 103.5,161.5 103.5,153.5C 107.5,153.5 111.5,153.5 115.5,153.5C 115.5,148.833 115.5,144.167 115.5,139.5C 123.5,139.5 131.5,139.5 139.5,139.5C 139.5,135.5 139.5,131.5 139.5,127.5C 174.167,127.5 208.833,127.5 243.5,127.5C 243.5,131.5 243.5,135.5 243.5,139.5C 251.5,139.5 259.5,139.5 267.5,139.5C 267.5,144.167 267.5,148.833 267.5,153.5C 271.5,153.5 275.5,153.5 279.5,153.5C 279.5,161.5 279.5,169.5 279.5,177.5C 283.5,177.5 287.5,177.5 291.5,177.5C 291.5,185.5 291.5,193.5 291.5,201.5C 295.5,201.5 299.5,201.5 303.5,201.5C 303.5,224.833 303.5,248.167 303.5,271.5 Z"/></g>
<g><path style="opacity:1" fill="#7c766f" d="M 165.5,191.5 C 149.5,191.5 133.5,191.5 117.5,191.5C 117.5,198.833 117.5,206.167 117.5,213.5C 120.833,213.5 124.167,213.5 127.5,213.5C 127.5,209.5 127.5,205.5 127.5,201.5C 136.565,200.864 145.231,201.53 153.5,203.5C 145.5,203.5 137.5,203.5 129.5,203.5C 129.5,219.5 129.5,235.5 129.5,251.5C 137.5,251.5 145.5,251.5 153.5,251.5C 153.5,238.833 153.5,226.167 153.5,213.5C 157.5,213.5 161.5,213.5 165.5,213.5C 165.5,230.167 165.5,246.833 165.5,263.5C 148.833,263.5 132.167,263.5 115.5,263.5C 115.5,238.833 115.5,214.167 115.5,189.5C 132.534,188.848 149.2,189.515 165.5,191.5 Z"/></g>
<g><path style="opacity:1" fill="#7c766f" d="M 217.5,213.5 C 221.5,213.5 225.5,213.5 229.5,213.5C 229.5,226.167 229.5,238.833 229.5,251.5C 237.5,251.5 245.5,251.5 253.5,251.5C 253.5,235.5 253.5,219.5 253.5,203.5C 245.5,203.5 237.5,203.5 229.5,203.5C 237.769,201.53 246.435,200.864 255.5,201.5C 255.5,205.5 255.5,209.5 255.5,213.5C 258.833,213.5 262.167,213.5 265.5,213.5C 265.5,206.167 265.5,198.833 265.5,191.5C 249.5,191.5 233.5,191.5 217.5,191.5C 233.8,189.515 250.466,188.848 267.5,189.5C 267.5,214.167 267.5,238.833 267.5,263.5C 250.833,263.5 234.167,263.5 217.5,263.5C 217.5,246.833 217.5,230.167 217.5,213.5 Z"/></g>
<g><path style="opacity:1" fill="#000000" d="M 165.5,191.5 C 165.5,198.833 165.5,206.167 165.5,213.5C 161.5,213.5 157.5,213.5 153.5,213.5C 153.5,210.167 153.5,206.833 153.5,203.5C 145.231,201.53 136.565,200.864 127.5,201.5C 127.5,205.5 127.5,209.5 127.5,213.5C 124.167,213.5 120.833,213.5 117.5,213.5C 117.5,206.167 117.5,198.833 117.5,191.5C 133.5,191.5 149.5,191.5 165.5,191.5 Z"/></g>
<g><path style="opacity:1" fill="#000000" d="M 217.5,191.5 C 233.5,191.5 249.5,191.5 265.5,191.5C 265.5,198.833 265.5,206.167 265.5,213.5C 262.167,213.5 258.833,213.5 255.5,213.5C 255.5,209.5 255.5,205.5 255.5,201.5C 246.435,200.864 237.769,201.53 229.5,203.5C 229.5,206.833 229.5,210.167 229.5,213.5C 225.5,213.5 221.5,213.5 217.5,213.5C 217.5,206.167 217.5,198.833 217.5,191.5 Z"/></g>
<g><path style="opacity:1" fill="#a7fa88" d="M 153.5,203.5 C 153.5,206.833 153.5,210.167 153.5,213.5C 153.5,226.167 153.5,238.833 153.5,251.5C 145.5,251.5 137.5,251.5 129.5,251.5C 129.5,235.5 129.5,219.5 129.5,203.5C 137.5,203.5 145.5,203.5 153.5,203.5 Z"/></g>
<g><path style="opacity:1" fill="#a7fa88" d="M 229.5,203.5 C 237.5,203.5 245.5,203.5 253.5,203.5C 253.5,219.5 253.5,235.5 253.5,251.5C 245.5,251.5 237.5,251.5 229.5,251.5C 229.5,238.833 229.5,226.167 229.5,213.5C 229.5,210.167 229.5,206.833 229.5,203.5 Z"/></g>
<g><path style="opacity:1" fill="#736c6b" d="M 65.5,267.5 C 65.5,268.5 65.5,269.5 65.5,270.5C 51.6723,273.363 37.6723,274.196 23.5,273C 28.2316,270.534 33.2316,268.867 38.5,268C 47.4938,267.5 56.4938,267.334 65.5,267.5 Z"/></g>
<g><path style="opacity:1" fill="#76706e" d="M 317.5,267.5 C 331.628,266.958 345.628,267.958 359.5,270.5C 359.5,271.5 359.5,272.5 359.5,273.5C 347.814,274.962 336.147,274.795 324.5,273C 322.509,272.626 320.842,271.793 319.5,270.5C 318.449,269.778 317.782,268.778 317.5,267.5 Z"/></g>
<g><path style="opacity:1" fill="#db766a" d="M 79.5,271.5 C 89.9172,275.875 99.9172,281.042 109.5,287C 116.762,288.605 124.095,289.772 131.5,290.5C 128.029,292.087 124.363,293.254 120.5,294C 123.167,296 125.833,298 128.5,300C 148.569,310.518 169.902,316.684 192.5,318.5C 208.748,317.617 224.414,314.117 239.5,308C 248.301,305.104 255.967,300.437 262.5,294C 258.637,293.254 254.971,292.087 251.5,290.5C 258.515,289.415 265.515,288.248 272.5,287C 281.629,282.268 290.629,277.268 299.5,272C 300.793,271.51 302.127,271.343 303.5,271.5C 303.5,281.5 303.5,291.5 303.5,301.5C 299.5,301.5 295.5,301.5 291.5,301.5C 291.5,305.5 291.5,309.5 291.5,313.5C 287.5,313.5 283.5,313.5 279.5,313.5C 279.5,317.5 279.5,321.5 279.5,325.5C 275.5,325.5 271.5,325.5 267.5,325.5C 267.5,330.167 267.5,334.833 267.5,339.5C 254.833,339.5 242.167,339.5 229.5,339.5C 229.5,343.5 229.5,347.5 229.5,351.5C 204.167,351.5 178.833,351.5 153.5,351.5C 153.5,347.5 153.5,343.5 153.5,339.5C 140.833,339.5 128.167,339.5 115.5,339.5C 115.5,334.833 115.5,330.167 115.5,325.5C 111.5,325.5 107.5,325.5 103.5,325.5C 103.5,321.5 103.5,317.5 103.5,313.5C 99.5,313.5 95.5,313.5 91.5,313.5C 91.5,309.5 91.5,305.5 91.5,301.5C 87.5,301.5 83.5,301.5 79.5,301.5C 79.5,291.5 79.5,281.5 79.5,271.5 Z"/></g>
<g><path style="opacity:1" fill="#000000" d="M 179.5,277.5 C 187.5,277.5 195.5,277.5 203.5,277.5C 203.5,280.833 203.5,284.167 203.5,287.5C 195.5,287.5 187.5,287.5 179.5,287.5C 179.5,284.167 179.5,280.833 179.5,277.5 Z"/></g>
<g><path style="opacity:1" fill="#726a68" d="M 65.5,297.5 C 65.5,299.167 65.5,300.833 65.5,302.5C 52.2755,306.575 38.9422,310.242 25.5,313.5C 25.2148,311.712 25.5481,310.045 26.5,308.5C 38.8412,302.498 51.8412,298.831 65.5,297.5 Z"/></g>
<g><path style="opacity:1" fill="#716967" d="M 317.5,297.5 C 331.239,298.524 344.239,302.19 356.5,308.5C 357.452,310.045 357.785,311.712 357.5,313.5C 344.275,309.425 330.942,305.758 317.5,302.5C 317.5,300.833 317.5,299.167 317.5,297.5 Z"/></g>
<g><path style="opacity:1" fill="#716866" d="M 80.5,324.5 C 80.5,326.167 80.5,327.833 80.5,329.5C 83.2788,329.279 85.9455,329.612 88.5,330.5C 79.8617,335.004 72.5284,341.171 66.5,349C 64.7412,349.798 63.0745,349.631 61.5,348.5C 62.6662,345.497 64.3328,342.83 66.5,340.5C 70.4268,337.285 74.2602,333.951 78,330.5C 78.5662,328.277 79.3995,326.277 80.5,324.5 Z"/></g>
<g><path style="opacity:1" fill="#716967" d="M 303.5,329.5 C 309.395,334.374 315.229,339.374 321,344.5C 321.798,346.259 321.631,347.926 320.5,349.5C 313.826,346.332 308.159,341.832 303.5,336C 300.593,334.391 297.927,332.558 295.5,330.5C 297.948,329.527 300.615,329.194 303.5,329.5 Z"/></g>
</svg>
