<?xml version="1.0" encoding="UTF-8"?>
<svg version="1.1" xmlns="http://www.w3.org/2000/svg" width="192" height="192">
<path d="M0 0 C0.66 0 1.32 0 2 0 C2.77923828 1.49853516 2.77923828 1.49853516 3.57421875 3.02734375 C4.27774635 4.3312149 4.98222331 5.63457412 5.6875 6.9375 C6.19700195 7.9265332 6.19700195 7.9265332 6.71679688 8.93554688 C8.87561627 12.9124173 8.87561627 12.9124173 12.76953125 14.94140625 C13.50558594 14.96074219 14.24164063 14.98007812 15 15 C15 16.98 15 18.96 15 21 C16.98 21 18.96 21 21 21 C21 22.98 21 24.96 21 27 C23.31 27 25.62 27 28 27 C28 28.98 28 30.96 28 33 C35.92 33 43.84 33 52 33 C52 31.02 52 29.04 52 27 C54.31 27 56.62 27 59 27 C59 25.02 59 23.04 59 21 C60.98 21 62.96 21 65 21 C65 19.02 65 17.04 65 15 C65.73605469 14.98066406 66.47210938 14.96132813 67.23046875 14.94140625 C71.2937145 13.56024655 72.44923561 10.554425 74.3125 6.9375 C74.67150391 6.27427734 75.03050781 5.61105469 75.40039062 4.92773438 C76.28225977 3.29333689 77.14320594 1.64768088 78 0 C78.66 0 79.32 0 80 0 C78.53967505 5.31027254 76.01679014 9.46330032 73 14 C74.32 14.33 75.64 14.66 77 15 C77 12.69 77 10.38 77 8 C78.98 8 80.96 8 83 8 C83 6.02 83 4.04 83 2 C89.6 2 96.2 2 103 2 C103 3.98 103 5.96 103 8 C104.98 8 106.96 8 109 8 C109 28.79 109 49.58 109 71 C107.02 71 105.04 71 103 71 C103 83.54 103 96.08 103 109 C105.97 109 108.94 109 112 109 C114.19570159 109.27415672 116.3862457 109.59976932 118.5625 110 C120.11130859 110.2784375 120.11130859 110.2784375 121.69140625 110.5625 C122.45324219 110.706875 123.21507812 110.85125 124 111 C124 111.33 124 111.66 124 112 C107.53125 112.265625 107.53125 112.265625 103 110 C103 114.62 103 119.24 103 124 C105.4440625 124.37125 105.4440625 124.37125 107.9375 124.75 C113.40780853 125.72785308 118.06367827 127.48917956 123 130 C123 130.66 123 131.32 123 132 C122.47792969 131.81824219 121.95585937 131.63648438 121.41796875 131.44921875 C115.34250187 129.37440957 109.20694217 127.63584831 103 126 C103 127.98 103 129.96 103 132 C100.69 132 98.38 132 96 132 C95.49116323 135.16609543 95.2102081 136.95439725 96 140 C98.1670943 142.42477998 100.46244466 144.34590621 103.03125 146.3359375 C104.00578125 147.15964844 104.00578125 147.15964844 105 148 C105 148.66 105 149.32 105 150 C101.16076124 148.43586569 98.90063768 145.90063768 96 143 C94.36622358 141.94712186 92.70818403 140.9272999 91 140 C90.67 141.65 90.34 143.3 90 145 C88.02 145 86.04 145 84 145 C84 146.98 84 148.96 84 151 C78.06 151 72.12 151 66 151 C66 152.98 66 154.96 66 157 C48.84 157 31.68 157 14 157 C14 155.02 14 153.04 14 151 C8.06 151 2.12 151 -4 151 C-4 149.02 -4 147.04 -4 145 C-5.98 145 -7.96 145 -10 145 C-10.495 142.525 -10.495 142.525 -11 140 C-12.44319692 140.90767102 -13.87934106 141.82656106 -15.3125 142.75 C-16.51326172 143.51570313 -16.51326172 143.51570313 -17.73828125 144.296875 C-20.00496513 146.00373885 -21.32535663 147.74095029 -23 150 C-23.66 150 -24.32 150 -25 150 C-23.62900393 146.75946384 -22.23574853 145.25134671 -19.375 143.25 C-16.65325255 141.05301957 -16.65325255 141.05301957 -15.54296875 137.8359375 C-15.52372148 135.38232196 -15.52372148 135.38232196 -16 132 C-18.31 132 -20.62 132 -23 132 C-23 130.02 -23 128.04 -23 126 C-24.10859375 126.34933594 -25.2171875 126.69867188 -26.359375 127.05859375 C-27.82289758 127.51828994 -29.2864403 127.977922 -30.75 128.4375 C-31.84441406 128.78264648 -31.84441406 128.78264648 -32.9609375 129.13476562 C-33.66992188 129.35712891 -34.37890625 129.57949219 -35.109375 129.80859375 C-35.75874023 130.01282959 -36.40810547 130.21706543 -37.07714844 130.42749023 C-39.03928688 131.01169727 -41.01049584 131.51810648 -43 132 C-43 131.34 -43 130.68 -43 130 C-36.41141243 126.6487678 -30.30621028 125.10980409 -23 124 C-23 119.38 -23 114.76 -23 110 C-23.99 110.495 -23.99 110.495 -25 111 C-31.32026832 111.96775375 -37.61946116 112.10291192 -44 112 C-37.37006289 108.3996368 -30.4379862 109 -23 109 C-23 96.46 -23 83.92 -23 71 C-24.98 71 -26.96 71 -29 71 C-29 50.21 -29 29.42 -29 8 C-27.02 8 -25.04 8 -23 8 C-23 6.02 -23 4.04 -23 2 C-16.4 2 -9.8 2 -3 2 C-3 3.98 -3 5.96 -3 8 C-1.02 8 0.96 8 3 8 C3 10.31 3 12.62 3 15 C4.32 14.67 5.64 14.34 7 14 C6.4946875 13.15695313 5.989375 12.31390625 5.46875 11.4453125 C4.49421875 9.80175781 4.49421875 9.80175781 3.5 8.125 C2.52546875 6.48917969 2.52546875 6.48917969 1.53125 4.8203125 C0 2 0 2 0 0 Z " fill="#FAB5A7" transform="translate(56,25)"/>
<path d="M0 0 C0.66 0 1.32 0 2 0 C2.77923828 1.49853516 2.77923828 1.49853516 3.57421875 3.02734375 C4.27774635 4.3312149 4.98222331 5.63457412 5.6875 6.9375 C6.19700195 7.9265332 6.19700195 7.9265332 6.71679688 8.93554688 C8.87561627 12.9124173 8.87561627 12.9124173 12.76953125 14.94140625 C13.50558594 14.96074219 14.24164063 14.98007812 15 15 C15 16.98 15 18.96 15 21 C16.98 21 18.96 21 21 21 C21 22.98 21 24.96 21 27 C23.31 27 25.62 27 28 27 C28 28.98 28 30.96 28 33 C35.92 33 43.84 33 52 33 C52 31.02 52 29.04 52 27 C54.31 27 56.62 27 59 27 C59 25.02 59 23.04 59 21 C60.98 21 62.96 21 65 21 C65 19.02 65 17.04 65 15 C65.73605469 14.98066406 66.47210938 14.96132813 67.23046875 14.94140625 C71.2937145 13.56024655 72.44923561 10.554425 74.3125 6.9375 C74.67150391 6.27427734 75.03050781 5.61105469 75.40039062 4.92773438 C76.28225977 3.29333689 77.14320594 1.64768088 78 0 C78.66 0 79.32 0 80 0 C78.53967505 5.31027254 76.01679014 9.46330032 73 14 C74.32 14.33 75.64 14.66 77 15 C77 12.69 77 10.38 77 8 C78.98 8 80.96 8 83 8 C83 6.02 83 4.04 83 2 C89.6 2 96.2 2 103 2 C103 3.98 103 5.96 103 8 C104.98 8 106.96 8 109 8 C109 28.79 109 49.58 109 71 C107.02 71 105.04 71 103 71 C103 83.54 103 96.08 103 109 C105.97 109 108.94 109 112 109 C114.19570159 109.27415672 116.3862457 109.59976932 118.5625 110 C120.11130859 110.2784375 120.11130859 110.2784375 121.69140625 110.5625 C122.45324219 110.706875 123.21507812 110.85125 124 111 C124 111.33 124 111.66 124 112 C107.53125 112.265625 107.53125 112.265625 103 110 C103 114.62 103 119.24 103 124 C105.4440625 124.37125 105.4440625 124.37125 107.9375 124.75 C113.40780853 125.72785308 118.06367827 127.48917956 123 130 C123 130.66 123 131.32 123 132 C122.47792969 131.81824219 121.95585937 131.63648438 121.41796875 131.44921875 C115.34250187 129.37440957 109.20694217 127.63584831 103 126 C103 127.98 103 129.96 103 132 C100.69 132 98.38 132 96 132 C95.49116323 135.16609543 95.2102081 136.95439725 96 140 C98.1670943 142.42477998 100.46244466 144.34590621 103.03125 146.3359375 C104.00578125 147.15964844 104.00578125 147.15964844 105 148 C105 148.66 105 149.32 105 150 C101.16076124 148.43586569 98.90063768 145.90063768 96 143 C94.36622358 141.94712186 92.70818403 140.9272999 91 140 C90.67 141.65 90.34 143.3 90 145 C88.02 145 86.04 145 84 145 C84 146.98 84 148.96 84 151 C78.06 151 72.12 151 66 151 C66 152.98 66 154.96 66 157 C48.84 157 31.68 157 14 157 C14 155.02 14 153.04 14 151 C8.06 151 2.12 151 -4 151 C-4 149.02 -4 147.04 -4 145 C-5.98 145 -7.96 145 -10 145 C-10.495 142.525 -10.495 142.525 -11 140 C-12.44319692 140.90767102 -13.87934106 141.82656106 -15.3125 142.75 C-16.51326172 143.51570313 -16.51326172 143.51570313 -17.73828125 144.296875 C-20.00496513 146.00373885 -21.32535663 147.74095029 -23 150 C-23.66 150 -24.32 150 -25 150 C-23.62900393 146.75946384 -22.23574853 145.25134671 -19.375 143.25 C-16.65325255 141.05301957 -16.65325255 141.05301957 -15.54296875 137.8359375 C-15.52372148 135.38232196 -15.52372148 135.38232196 -16 132 C-18.31 132 -20.62 132 -23 132 C-23 130.02 -23 128.04 -23 126 C-24.10859375 126.34933594 -25.2171875 126.69867188 -26.359375 127.05859375 C-27.82289758 127.51828994 -29.2864403 127.977922 -30.75 128.4375 C-31.84441406 128.78264648 -31.84441406 128.78264648 -32.9609375 129.13476562 C-33.66992188 129.35712891 -34.37890625 129.57949219 -35.109375 129.80859375 C-35.75874023 130.01282959 -36.40810547 130.21706543 -37.07714844 130.42749023 C-39.03928688 131.01169727 -41.01049584 131.51810648 -43 132 C-43 131.34 -43 130.68 -43 130 C-36.41141243 126.6487678 -30.30621028 125.10980409 -23 124 C-23 119.38 -23 114.76 -23 110 C-23.99 110.495 -23.99 110.495 -25 111 C-31.32026832 111.96775375 -37.61946116 112.10291192 -44 112 C-37.37006289 108.3996368 -30.4379862 109 -23 109 C-23 96.46 -23 83.92 -23 71 C-24.98 71 -26.96 71 -29 71 C-29 50.21 -29 29.42 -29 8 C-27.02 8 -25.04 8 -23 8 C-23 6.02 -23 4.04 -23 2 C-16.4 2 -9.8 2 -3 2 C-3 3.98 -3 5.96 -3 8 C-1.02 8 0.96 8 3 8 C3 10.31 3 12.62 3 15 C4.32 14.67 5.64 14.34 7 14 C6.4946875 13.15695313 5.989375 12.31390625 5.46875 11.4453125 C4.49421875 9.80175781 4.49421875 9.80175781 3.5 8.125 C2.52546875 6.48917969 2.52546875 6.48917969 1.53125 4.8203125 C0 2 0 2 0 0 Z M14 39 C14 40.98 14 42.96 14 45 C10.04 45 6.08 45 2 45 C2 47.31 2 49.62 2 52 C0.02 52 -1.96 52 -4 52 C-4 55.96 -4 59.92 -4 64 C-5.98 64 -7.96 64 -10 64 C-10 67.96 -10 71.92 -10 76 C-11.98 76 -13.96 76 -16 76 C-16 92.5 -16 109 -16 126 C-14.02 126 -12.04 126 -10 126 C-10 127.98 -10 129.96 -10 132 C-8.02 132 -6.04 132 -4 132 C-4 133.98 -4 135.96 -4 138 C-2.02 138 -0.04 138 2 138 C2 140.31 2 142.62 2 145 C8.27 145 14.54 145 21 145 C21 146.98 21 148.96 21 151 C33.54 151 46.08 151 59 151 C59 149.02 59 147.04 59 145 C65.27 145 71.54 145 78 145 C78 142.69 78 140.38 78 138 C79.98 138 81.96 138 84 138 C84 136.02 84 134.04 84 132 C85.98 132 87.96 132 90 132 C90 130.02 90 128.04 90 126 C91.98 126 93.96 126 96 126 C96 109.5 96 93 96 76 C94.02 76 92.04 76 90 76 C90 72.04 90 68.08 90 64 C88.02 64 86.04 64 84 64 C84 60.04 84 56.08 84 52 C82.02 52 80.04 52 78 52 C78 49.69 78 47.38 78 45 C74.04 45 70.08 45 66 45 C66 43.02 66 41.04 66 39 C48.84 39 31.68 39 14 39 Z " fill="#030101" transform="translate(56,25)"/>
<path d="M0 0 C3.83755423 1.53502169 6.31977329 2.81295607 9.625 5.0625 C14.98785587 8.38197856 19.7742221 8.97632784 26 9 C26 9.33 26 9.66 26 10 C24.02 10.33 22.04 10.66 20 11 C27.72956147 17.40826891 36.48493307 19.54038949 46 22 C46.68690918 22.18030762 47.37381836 22.36061523 48.08154297 22.54638672 C60.74686185 25.54106253 75.68016715 20.65991642 87 15 C90.00271913 12.93813456 90.00271913 12.93813456 92 11 C90.02 10.67 88.04 10.34 86 10 C86 9.67 86 9.34 86 9 C86.67804688 8.99742187 87.35609375 8.99484375 88.0546875 8.9921875 C94.80627336 8.71165069 99.12730295 7.27288913 104.7109375 3.47265625 C107 2 107 2 112 0 C112 4.95 112 9.9 112 15 C110.02 15 108.04 15 106 15 C106 16.98 106 18.96 106 21 C104.02 21 102.04 21 100 21 C100 22.98 100 24.96 100 27 C98.02 27 96.04 27 94 27 C94 29.31 94 31.62 94 34 C87.73 34 81.46 34 75 34 C75 35.98 75 37.96 75 40 C62.46 40 49.92 40 37 40 C37 38.02 37 36.04 37 34 C30.73 34 24.46 34 18 34 C18 31.69 18 29.38 18 27 C16.02 27 14.04 27 12 27 C12 25.02 12 23.04 12 21 C10.02 21 8.04 21 6 21 C6 19.02 6 17.04 6 15 C4.02 15 2.04 15 0 15 C0 10.05 0 5.1 0 0 Z " fill="#DF786C" transform="translate(40,136)"/>
<path d="M0 0 C1.98 0 3.96 0 6 0 C6 1.98 6 3.96 6 6 C7.98 6 9.96 6 12 6 C12 22.5 12 39 12 56 C10.02 56 8.04 56 6 56 C6 53.69 6 51.38 6 49 C4.02 49 2.04 49 0 49 C0 45.04 0 41.08 0 37 C-2.31 37 -4.62 37 -7 37 C-7 35.02 -7 33.04 -7 31 C-10.96 31 -14.92 31 -19 31 C-19 29.02 -19 27.04 -19 25 C-20.98 25 -22.96 25 -25 25 C-25 22.69 -25 20.38 -25 18 C-23.02 18 -21.04 18 -19 18 C-19 16.02 -19 14.04 -19 12 C-15.04 12 -11.08 12 -7 12 C-7 10.02 -7 8.04 -7 6 C-4.69 6 -2.38 6 0 6 C0 4.02 0 2.04 0 0 Z " fill="#FBB5A6" transform="translate(146,34)"/>
<path d="M0 0 C1.98 0 3.96 0 6 0 C6 1.98 6 3.96 6 6 C8.31 6 10.62 6 13 6 C13 7.98 13 9.96 13 12 C16.96 12 20.92 12 25 12 C25 13.98 25 15.96 25 18 C26.98 18 28.96 18 31 18 C31 20.31 31 22.62 31 25 C29.02 25 27.04 25 25 25 C25 26.98 25 28.96 25 31 C21.04 31 17.08 31 13 31 C13 32.98 13 34.96 13 37 C10.69 37 8.38 37 6 37 C6 40.96 6 44.92 6 49 C4.02 49 2.04 49 0 49 C0 51.31 0 53.62 0 56 C-1.98 56 -3.96 56 -6 56 C-6 39.5 -6 23 -6 6 C-4.02 6 -2.04 6 0 6 C0 4.02 0 2.04 0 0 Z " fill="#FBB5A7" transform="translate(40,34)"/>
<path d="M0 0 C8.25 0 16.5 0 25 0 C25 12.21 25 24.42 25 37 C16.75 37 8.5 37 0 37 C0 24.79 0 12.58 0 0 Z " fill="#7D7B73" transform="translate(109,95)"/>
<path d="M0 0 C8.25 0 16.5 0 25 0 C25 12.21 25 24.42 25 37 C16.75 37 8.5 37 0 37 C0 24.79 0 12.58 0 0 Z " fill="#7D7B73" transform="translate(58,95)"/>
<path d="M0 0 C1.98 0 3.96 0 6 0 C6 2.31 6 4.62 6 7 C4.02 7 2.04 7 0 7 C0 8.98 0 10.96 0 13 C-3.96 13 -7.92 13 -12 13 C-12 14.98 -12 16.96 -12 19 C-14.31 19 -16.62 19 -19 19 C-19 22.96 -19 26.92 -19 31 C-20.98 31 -22.96 31 -25 31 C-25 33.31 -25 35.62 -25 38 C-26.98 38 -28.96 38 -31 38 C-31 27.44 -31 16.88 -31 6 C-29.02 6.99 -27.04 7.98 -25 9 C-21.58313127 9.77427915 -21.58313127 9.77427915 -18.125 10.1875 C-16.39636719 10.42533203 -16.39636719 10.42533203 -14.6328125 10.66796875 C-13.76398437 10.77753906 -12.89515625 10.88710938 -12 11 C-12 10.34 -12 9.68 -12 9 C-11.34 9 -10.68 9 -10 9 C-10.33 8.01 -10.66 7.02 -11 6 C-10.34 6 -9.68 6 -9 6 C-8.67 6.66 -8.34 7.32 -8 8 C-4.22699642 6.9802693 -3.19793856 6.34127338 -1.1875 2.875 C-0.795625 1.92625 -0.40375 0.9775 0 0 Z " fill="#E57A6E" transform="translate(65,52)"/>
<path d="M0 0 C1.98 0 3.96 0 6 0 C6.391875 0.94875 6.78375 1.8975 7.1875 2.875 C8.72057304 6.12902379 8.72057304 6.12902379 11.5625 7.4375 C13.99022331 8.27025561 13.99022331 8.27025561 16 7 C16 7.66 16 8.32 16 9 C20.73194665 11.36597332 26.0777145 10.15126176 30.875 8.5625 C32.99489142 7.79800954 34.98437973 7.00781013 37 6 C37 16.56 37 27.12 37 38 C35.02 38 33.04 38 31 38 C31 35.69 31 33.38 31 31 C29.02 31 27.04 31 25 31 C25 27.04 25 23.08 25 19 C22.69 19 20.38 19 18 19 C18 17.02 18 15.04 18 13 C14.04 13 10.08 13 6 13 C6 11.02 6 9.04 6 7 C4.02 7 2.04 7 0 7 C0 4.69 0 2.38 0 0 Z " fill="#E57A6F" transform="translate(121,52)"/>
<path d="M0 0 C3.96 0 7.92 0 12 0 C12 7.92 12 15.84 12 24 C8.04 24 4.08 24 0 24 C0 16.08 0 8.16 0 0 Z " fill="#AEFE8C" transform="translate(115,102)"/>
<path d="M0 0 C3.96 0 7.92 0 12 0 C12 7.92 12 15.84 12 24 C8.04 24 4.08 24 0 24 C0 16.08 0 8.16 0 0 Z " fill="#AEFE8C" transform="translate(65,102)"/>
<path d="M0 0 C7.92 0 15.84 0 24 0 C24 3.63 24 7.26 24 11 C22.35 11 20.7 11 19 11 C19 9.02 19 7.04 19 5 C14.71 5 10.42 5 6 5 C6 6.98 6 8.96 6 11 C4.02 11 2.04 11 0 11 C0 7.37 0 3.74 0 0 Z " fill="#000000" transform="translate(109,96)"/>
<path d="M0 0 C7.92 0 15.84 0 24 0 C24 3.63 24 7.26 24 11 C22.02 11 20.04 11 18 11 C18 9.02 18 7.04 18 5 C13.71 5 9.42 5 5 5 C5 6.98 5 8.96 5 11 C3.35 11 1.7 11 0 11 C0 7.37 0 3.74 0 0 Z " fill="#000000" transform="translate(59,96)"/>
<path d="M0 0 C1.98 0 3.96 0 6 0 C6.391875 0.928125 6.78375 1.85625 7.1875 2.8125 C9.14739849 6.25921804 10.59760503 7.16086758 14 9 C14 9.66 14 10.32 14 11 C15.65 11.33 17.3 11.66 19 12 C19 14.31 19 16.62 19 19 C18.67 19 18.34 19 18 19 C18 17.02 18 15.04 18 13 C14.04 13 10.08 13 6 13 C6 11.02 6 9.04 6 7 C4.02 7 2.04 7 0 7 C0 4.69 0 2.38 0 0 Z " fill="#D16F64" transform="translate(121,52)"/>
<path d="M0 0 C1.98 0 3.96 0 6 0 C6 2.31 6 4.62 6 7 C4.02 7 2.04 7 0 7 C0 8.98 0 10.96 0 13 C-3.96 13 -7.92 13 -12 13 C-12 14.98 -12 16.96 -12 19 C-12.33 19 -12.66 19 -13 19 C-13 16.69 -13 14.38 -13 12 C-11.35 11.67 -9.7 11.34 -8 11 C-8 10.34 -8 9.68 -8 9 C-7.05125 8.401875 -6.1025 7.80375 -5.125 7.1875 C-1.85050303 4.89535212 -1.04394363 3.75819708 0 0 Z " fill="#D16F64" transform="translate(65,52)"/>
<path d="M0 0 C3.81275879 1.52510352 6.86017055 3.00757127 10.3125 5.125 C11.19550781 5.66382813 12.07851563 6.20265625 12.98828125 6.7578125 C13.65214844 7.16773438 14.31601562 7.57765625 15 8 C12.22957891 10.77042109 10.23466195 10.39796106 6.375 10.625 C5.18648437 10.69976562 3.99796875 10.77453125 2.7734375 10.8515625 C1.85820313 10.90054688 0.94296875 10.94953125 0 11 C0 7.37 0 3.74 0 0 Z " fill="#E87D71" transform="translate(40,136)"/>
<path d="M0 0 C0 3.63 0 7.26 0 11 C-2.12563103 10.88623383 -4.2505261 10.75864369 -6.375 10.625 C-7.55835938 10.55539063 -8.74171875 10.48578125 -9.9609375 10.4140625 C-13 10 -13 10 -15 8 C-14.31292969 7.59007812 -13.62585938 7.18015625 -12.91796875 6.7578125 C-12.01691406 6.21898437 -11.11585938 5.68015625 -10.1875 5.125 C-9.29417969 4.59132812 -8.40085938 4.05765625 -7.48046875 3.5078125 C-1.70984456 0 -1.70984456 0 0 0 Z " fill="#E87D71" transform="translate(152,136)"/>
<path d="M0 0 C3.96 0 7.92 0 12 0 C12 1.65 12 3.3 12 5 C8.04 5 4.08 5 0 5 C0 3.35 0 1.7 0 0 Z " fill="#000000" transform="translate(90,139)"/>
<path d="M0 0 C0.66 0 1.32 0 2 0 C2.66 1.98 3.32 3.96 4 6 C2.35 6 0.7 6 -1 6 C-1 5.01 -1 4.02 -1 3 C-0.34 3 0.32 3 1 3 C0.67 2.01 0.34 1.02 0 0 Z " fill="#DC867A" transform="translate(54,58)"/>
</svg>
